<?xml version="1.0" encoding="UTF-8" standalone="no"?>
<!-- Created with Inkscape (http://www.inkscape.org/) -->

<svg
   xmlns:dc="http://purl.org/dc/elements/1.1/"
   xmlns:cc="http://creativecommons.org/ns#"
   xmlns:rdf="http://www.w3.org/1999/02/22-rdf-syntax-ns#"
   xmlns:svg="http://www.w3.org/2000/svg"
   xmlns="http://www.w3.org/2000/svg"
   xmlns:sodipodi="http://sodipodi.sourceforge.net/DTD/sodipodi-0.dtd"
   xmlns:inkscape="http://www.inkscape.org/namespaces/inkscape"
   width="183"
   height="183"
   viewBox="0 0 48.418749 48.418751"
   version="1.1"
   id="svg5007"
   inkscape:version="0.92.2 5c3e80d, 2017-08-06"
   sodipodi:docname="learn.svg">
  <defs
     id="defs5001" />
  <sodipodi:namedview
     id="base"
     pagecolor="#ffffff"
     bordercolor="#666666"
     borderopacity="1.0"
     inkscape:pageopacity="0.0"
     inkscape:pageshadow="2"
     inkscape:zoom="1.979899"
     inkscape:cx="99.348334"
     inkscape:cy="6.8153839"
     inkscape:document-units="px"
     inkscape:current-layer="layer1"
     showgrid="false"
     units="px"
     inkscape:window-width="958"
     inkscape:window-height="1024"
     inkscape:window-x="960"
     inkscape:window-y="31"
     inkscape:window-maximized="0" />
  <metadata
     id="metadata5004">
    <rdf:RDF>
      <cc:Work
         rdf:about="">
        <dc:format>image/svg+xml</dc:format>
        <dc:type
           rdf:resource="http://purl.org/dc/dcmitype/StillImage" />
        <dc:title></dc:title>
      </cc:Work>
    </rdf:RDF>
  </metadata>
  <g
     inkscape:label="Layer 1"
     inkscape:groupmode="layer"
     id="layer1"
     transform="translate(0,-248.58124)">
    <circle
       style="display:inline;opacity:1;fill:#e81f64;fill-opacity:1;stroke-width:0.22109015"
       id="circle622"
       cx="24.209373"
       cy="272.79062"
       r="24.209373" />
    <path
       style="display:inline;fill:#ffffff;stroke-width:0.09689209"
       d="m 9.3383315,272.79061 v -10.56124 h 14.8245095 14.82449 l 0.002,2.78565 0.002,2.78564 0.29868,-0.48445 c 0.16427,-0.26645 0.41598,-0.66866 0.55938,-0.89378 l 0.26071,-0.40932 1.5808,1.00916 c 0.86945,0.55503 1.59956,1.0279 1.62247,1.0508 0.0229,0.0229 -0.94102,1.60351 -2.14204,3.51244 l -2.18369,3.47078 v 4.14778 4.14778 H 24.162841 9.3383315 Z m 28.6800795,6.71785 c 0,-1.58096 -0.0173,-2.85629 -0.0383,-2.83409 -0.0211,0.0222 -0.65729,1.0214 -1.41378,2.22044 -0.75648,1.19904 -1.39031,2.1953 -1.4085,2.2139 -0.0264,0.027 -3.07271,-1.84396 -3.23992,-1.98986 -0.0247,-0.0215 0.002,-0.11339 0.0605,-0.20422 0.11857,-0.18593 3.01992,-4.79318 4.84335,-7.69108 l 1.19942,-1.90618 -0.0257,-3.03531 -0.0256,-3.03532 -13.83134,-0.0245 -13.83136,-0.0245 v 9.59265 9.59264 h 13.85564 13.85557 z m -22.63028,-1.99122 c 0.24467,-0.64766 1.70419,-4.40084 2.74239,-7.05204 0.34433,-0.8793 0.71973,-1.84939 0.83422,-2.15576 l 0.20816,-0.55704 1.08013,-9e-5 1.08012,-9e-5 2.04475,5.11106 c 1.12461,2.81108 2.0447,5.14518 2.04464,5.1869 -6e-5,0.0417 -0.48632,0.0635 -1.0806,0.0485 l -1.08049,-0.0274 -0.43683,-1.14029 -0.43683,-1.14029 -2.12723,0.026 -2.12722,0.026 -0.4137,1.11426 -0.4137,1.11426 -1.07387,0.0273 -1.07388,0.0273 z m 6.25552,-3.56024 c 0,-0.10662 -1.238,-3.46987 -1.35302,-3.67572 -0.0518,-0.0928 -0.14335,0.0447 -0.29028,0.43601 -0.39283,1.04617 -1.16657,3.21939 -1.16657,3.27656 0,0.0309 0.63222,0.0564 1.40493,0.0564 0.835,0 1.40494,-0.0378 1.40494,-0.0932 z m 5.71663,-1.69929 v -1.01738 l -0.75092,-0.0174 c -0.41299,-0.01 -0.89261,-0.008 -1.06581,0.004 l -0.3149,0.0216 v -0.73088 -0.73089 h 1.06582 1.06581 v -1.01737 -1.01736 h 0.67825 0.67824 v 1.01736 1.01737 h 1.01039 1.01039 l 0.0165,1.41032 c 0,0 0,0 -0.58622,0.006 -0.34514,0.006 -0.81283,0.0173 -1.03931,0.0242 l -0.41179,0.0126 v 1.01737 1.01737 h -0.67825 -0.67825 z m 8.97495,5.15725 c 1.66442,-2.66542 4.76188,-7.58801 5.30785,-8.4354 0.20028,-0.31084 0.34958,-0.57647 0.33179,-0.59031 -0.22193,-0.17258 -1.46433,-0.9277 -1.52636,-0.9277 -0.0457,0 -0.25547,0.2725 -0.4662,0.60557 -0.61018,0.96438 -3.54182,5.61907 -5.19547,8.24906 -0.83388,1.32622 -1.51615,2.42528 -1.51615,2.44235 0,0.041 1.48762,1.00448 1.55028,1.00411 0.0267,-1.9e-4 0.70806,-1.05661 1.51426,-2.34768 z"
       id="path624"
       inkscape:connector-curvature="0"
       sodipodi:nodetypes="cccccccccccsccccccccccccscccccccccccsccccscsccccccccccsccssscccccccccccccccccccccccccccccscsssc" />
  </g>
</svg>
