<?xml version="1.0" encoding="UTF-8" standalone="no"?>
<!-- Created with Inkscape (http://www.inkscape.org/) -->

<svg
   xmlns:dc="http://purl.org/dc/elements/1.1/"
   xmlns:cc="http://creativecommons.org/ns#"
   xmlns:rdf="http://www.w3.org/1999/02/22-rdf-syntax-ns#"
   xmlns:svg="http://www.w3.org/2000/svg"
   xmlns="http://www.w3.org/2000/svg"
   xmlns:sodipodi="http://sodipodi.sourceforge.net/DTD/sodipodi-0.dtd"
   xmlns:inkscape="http://www.inkscape.org/namespaces/inkscape"
   width="128"
   height="128"
   viewBox="0 0 33.866666 33.866666"
   version="1.1"
   id="svg8"
   inkscape:version="0.92.2 5c3e80d, 2017-08-06"
   sodipodi:docname="practical.svg">
  <defs
     id="defs2" />
  <sodipodi:namedview
     id="base"
     pagecolor="#ffffff"
     bordercolor="#666666"
     borderopacity="1.0"
     inkscape:pageopacity="0.0"
     inkscape:pageshadow="2"
     inkscape:zoom="3.959798"
     inkscape:cx="24.280602"
     inkscape:cy="69.438743"
     inkscape:document-units="px"
     inkscape:current-layer="layer1"
     showgrid="false"
     units="px"
     inkscape:window-width="1123"
     inkscape:window-height="947"
     inkscape:window-x="115"
     inkscape:window-y="108"
     inkscape:window-maximized="0" />
  <metadata
     id="metadata5">
    <rdf:RDF>
      <cc:Work
         rdf:about="">
        <dc:format>image/svg+xml</dc:format>
        <dc:type
           rdf:resource="http://purl.org/dc/dcmitype/StillImage" />
        <dc:title />
      </cc:Work>
    </rdf:RDF>
  </metadata>
  <g
     inkscape:label="Layer 1"
     inkscape:groupmode="layer"
     id="layer1"
     transform="translate(0,-263.13333)">
    <path
       id="path796"
       d="M 24.704204,272.00834 H 9.1624401 c -0.949774,0 -1.726862,0.77709 -1.726862,1.72686 v 10.36118 c 0,0.94977 0.777088,1.72686 1.726862,1.72686 H 15.20646 l -1.726863,2.59029 v 0.86344 h 6.907451 v -0.86344 l -1.726863,-2.59029 h 6.044019 c 0.949775,0 1.726863,-0.77709 1.726863,-1.72686 V 273.7352 c 0,-0.94977 -0.777088,-1.72686 -1.726863,-1.72686 z m 0,10.36118 H 9.1624401 V 273.7352 H 24.704204 Z"
       inkscape:connector-curvature="0"
       style="display:inline;fill:#ffffff;stroke-width:0.86343127" />
    <circle
       style="display:inline;opacity:1;fill:#0097a7;fill-opacity:1;fill-rule:nonzero;stroke:none;stroke-width:0.23026299;stroke-miterlimit:4;stroke-dasharray:none;stroke-opacity:1"
       id="circle1672"
       cx="16.933332"
       cy="280.06665"
       r="16.933332" />
    <path
       id="path844"
       d="M 25.814372,271.18562 H 8.0522884 c -0.8175619,0 -1.4801728,0.6626 -1.4801728,1.48018 v 14.80173 c 0,0.81757 0.6626109,1.48017 1.4801728,1.48017 H 25.814372 c 0.817559,0 1.480179,-0.6626 1.480179,-1.48017 V 272.6658 c 0,-0.81758 -0.66262,-1.48018 -1.480179,-1.48018 z m -16.2819079,10.36121 2.9603479,-2.96033 -2.9603479,-2.96035 1.4801729,-1.48018 4.440523,4.44053 -4.440523,4.44052 z m 11.8413889,1.48019 H 15.45316 v -1.48019 h 5.920693 z"
       inkscape:connector-curvature="0"
       style="display:inline;fill:#ffffff;stroke-width:0.02312772" />
  </g>
</svg>
