<?xml version="1.0" encoding="UTF-8" standalone="no"?>
<svg
   xmlns:dc="http://purl.org/dc/elements/1.1/"
   xmlns:cc="http://creativecommons.org/ns#"
   xmlns:rdf="http://www.w3.org/1999/02/22-rdf-syntax-ns#"
   xmlns:svg="http://www.w3.org/2000/svg"
   xmlns="http://www.w3.org/2000/svg"
   xmlns:sodipodi="http://sodipodi.sourceforge.net/DTD/sodipodi-0.dtd"
   xmlns:inkscape="http://www.inkscape.org/namespaces/inkscape"
   enable-background="new 0 0 56.693 56.693"
   height="64"
   id="Layer_1"
   version="1.1"
   viewBox="0 0 63.999999 63.999999"
   width="64"
   xml:space="preserve"
   sodipodi:docname="facebook.svg"
   inkscape:version="0.92.2 5c3e80d, 2017-08-06"><metadata
     id="metadata9"><rdf:RDF><cc:Work
         rdf:about=""><dc:format>image/svg+xml</dc:format><dc:type
           rdf:resource="http://purl.org/dc/dcmitype/StillImage" /><dc:title></dc:title></cc:Work></rdf:RDF></metadata><defs
     id="defs7"><style
       id="style11">.cls-1,.cls-2{fill:none;stroke:#fff;stroke-width:2px;}.cls-1{stroke-miterlimit:10;}.cls-2{stroke-linejoin:round;}</style></defs><sodipodi:namedview
     pagecolor="#ffffff"
     bordercolor="#666666"
     borderopacity="1"
     objecttolerance="10"
     gridtolerance="10"
     guidetolerance="10"
     inkscape:pageopacity="0"
     inkscape:pageshadow="2"
     inkscape:window-width="1451"
     inkscape:window-height="801"
     id="namedview5"
     showgrid="false"
     inkscape:zoom="2.9435239"
     inkscape:cx="-16.759651"
     inkscape:cy="66.796993"
     inkscape:window-x="0"
     inkscape:window-y="36"
     inkscape:window-maximized="0"
     inkscape:current-layer="Layer_1" /><g
     id="g816"
     transform="matrix(1.2994924,0,0,1.2994924,-4.8367107,-16.194274)"><ellipse
       ry="19.758472"
       rx="18.917685"
       cy="37.275017"
       cx="28.286446"
       id="path42"
       style="opacity:1;fill:#ffffff;fill-opacity:1;fill-rule:nonzero;stroke:#ffffff;stroke-width:1;stroke-miterlimit:4;stroke-dasharray:none;stroke-opacity:1" /><path
       inkscape:connector-curvature="0"
       id="path2"
       d="m 28.347,12.463999 c -13.6,0 -24.625,11.027 -24.625,24.625 0,13.6 11.025,24.623 24.625,24.623 13.6,0 24.625,-11.023 24.625,-24.623 0,-13.598 -11.026,-24.625 -24.625,-24.625 z m 6.517,24.522 H 30.6 c 0,6.814 0,15.207 0,15.207 h -6.32 c 0,0 0,-8.307 0,-15.207 h -3.006 v -5.369 h 3.006 v -3.479 c 0,-2.49 1.182,-6.377 6.379,-6.377 l 4.68,0.018 v 5.215 c 0,0 -2.846,0 -3.398,0 -0.555,0 -1.34,0.277 -1.34,1.461 v 3.163 h 4.818 z" /></g></svg>