<?xml version="1.0" encoding="UTF-8" standalone="no"?>
<svg
   xmlns:dc="http://purl.org/dc/elements/1.1/"
   xmlns:cc="http://creativecommons.org/ns#"
   xmlns:rdf="http://www.w3.org/1999/02/22-rdf-syntax-ns#"
   xmlns:svg="http://www.w3.org/2000/svg"
   xmlns="http://www.w3.org/2000/svg"
   xmlns:sodipodi="http://sodipodi.sourceforge.net/DTD/sodipodi-0.dtd"
   xmlns:inkscape="http://www.inkscape.org/namespaces/inkscape"
   enable-background="new 0 0 56.693 56.693"
   height="64"
   id="Layer_1"
   version="1.1"
   viewBox="0 0 63.999999 63.999999"
   width="64"
   xml:space="preserve"
   sodipodi:docname="twitter.svg"
   inkscape:version="0.92.2 5c3e80d, 2017-08-06"><metadata
     id="metadata9"><rdf:RDF><cc:Work
         rdf:about=""><dc:format>image/svg+xml</dc:format><dc:type
           rdf:resource="http://purl.org/dc/dcmitype/StillImage" /><dc:title></dc:title></cc:Work></rdf:RDF></metadata><defs
     id="defs7" /><sodipodi:namedview
     pagecolor="#ffffff"
     bordercolor="#666666"
     borderopacity="1"
     objecttolerance="10"
     gridtolerance="10"
     guidetolerance="10"
     inkscape:pageopacity="0"
     inkscape:pageshadow="2"
     inkscape:window-width="1423"
     inkscape:window-height="854"
     id="namedview5"
     showgrid="false"
     inkscape:zoom="5.8870477"
     inkscape:cx="6.4457665"
     inkscape:cy="17.561916"
     inkscape:window-x="0"
     inkscape:window-y="36"
     inkscape:window-maximized="0"
     inkscape:current-layer="Layer_1" /><g
     id="g827"
     transform="matrix(1.2995452,0,0,1.2995452,-4.8382068,-6.7017568)"><ellipse
       ry="17.453569"
       rx="19.152214"
       cy="29.781"
       cx="28.347"
       id="path819"
       style="opacity:1;fill:#ffffff;fill-opacity:1;fill-rule:nonzero;stroke:#ffffff;stroke-width:1;stroke-miterlimit:4;stroke-dasharray:none;stroke-opacity:1" /><path
       id="path2"
       d="m 28.348,5.157 c -13.6,0 -24.625,11.027 -24.625,24.625 0,13.6 11.025,24.623 24.625,24.623 13.6,0 24.623,-11.023 24.623,-24.623 0,-13.598 -11.024,-24.625 -24.623,-24.625 z m 12.404,19.66 c 0.013,0.266 0.018,0.533 0.018,0.803 0,8.201 -6.242,17.656 -17.656,17.656 -3.504,0 -6.767,-1.027 -9.513,-2.787 0.486,0.057 0.979,0.086 1.48,0.086 2.908,0 5.584,-0.992 7.707,-2.656 -2.715,-0.051 -5.006,-1.846 -5.796,-4.311 0.378,0.074 0.767,0.111 1.167,0.111 0.566,0 1.114,-0.074 1.635,-0.217 -2.84,-0.57 -4.979,-3.08 -4.979,-6.084 0,-0.027 0,-0.053 0.001,-0.08 0.836,0.465 1.793,0.744 2.811,0.777 -1.666,-1.115 -2.761,-3.012 -2.761,-5.166 0,-1.137 0.306,-2.204 0.84,-3.12 3.061,3.754 7.634,6.225 12.792,6.483 -0.106,-0.453 -0.161,-0.928 -0.161,-1.414 0,-3.426 2.778,-6.205 6.206,-6.205 1.785,0 3.397,0.754 4.529,1.959 1.414,-0.277 2.742,-0.795 3.941,-1.506 -0.465,1.45 -1.448,2.666 -2.73,3.433 1.257,-0.15 2.453,-0.484 3.565,-0.977 -0.83,1.247 -1.883,2.34 -3.096,3.215 z"
       inkscape:connector-curvature="0" /></g></svg>